<?xml version="1.0" encoding="UTF-8"?>
<!DOCTYPE svg PUBLIC "-//W3C//DTD SVG 1.1//EN" "http://www.w3.org/Graphics/SVG/1.1/DTD/svg11.dtd">
<!-- Creator: CorelDRAW 2021 (64-Bit 评估版) -->
<svg xmlns="http://www.w3.org/2000/svg" xml:space="preserve" width="254mm" height="254mm" version="1.1" style="shape-rendering:geometricPrecision; text-rendering:geometricPrecision; image-rendering:optimizeQuality; fill-rule:evenodd; clip-rule:evenodd"
viewBox="0 0 25400 25400"
 xmlns:xlink="http://www.w3.org/1999/xlink"
 xmlns:xodm="http://www.corel.com/coreldraw/odm/2003">
 <defs>
  <style type="text/css">
   <![CDATA[
    .str0 {stroke:#FEFEFE;stroke-width:7.62;stroke-miterlimit:22.9256}
    .fil6 {fill:#FEFEFE}
    .fil5 {fill:#F0CF86}
    .fil4 {fill:#00A4EF}
    .fil3 {fill:#80CC28}
    .fil2 {fill:#E73148}
    .fil0 {fill:#F0D087}
    .fil1 {fill:#FFB900}
   ]]>
  </style>
 </defs>
 <g id="图层_x0020_1">
  <metadata id="CorelCorpID_0Corel-Layer"/>
  <rect class="fil0" x="3512.2" y="12448.46" width="6258.08" height="6025.83"/>
  <g id="_2308895305584">
  </g>
  <g id="_2308895305536">
   <path class="fil1" d="M12457.22 6308.26l4952.41 -2475.7 -2155.01 -1073.78 -848.99 424.42c846.97,673.74 -1176.14,1391.27 -2340.08,811.27 -592.72,-295.29 -676.41,-1012.54 622.27,-1234.07 335.25,-57.14 643.36,-46.25 999.43,64.82l848.97 -424.37 -2155.02 -1073.78 -4952.41 2475.71 5028.43 2505.48z"/>
   <path class="fil2" d="M6797.33 9137.61l4952.41 -2475.71 -5028.43 -2505.48 -2122.46 1061 861.97 429.51c1338.58,-413.55 2804.01,605.95 1657.71,1179.04 -1143.62,571.65 -3193.17,-155.42 -2365.21,-825.35l-862.14 -429.51 -2122.46 1061 5028.61 2505.5z"/>
   <path class="fil3" d="M9670.72 10569.3l849.01 -424.41c-846.97,-673.74 1176.14,-1391.27 2340.06,-811.32 1161.18,578.55 -268.01,1591.59 -1621.84,1169.26l-848.99 424.4 2155.18 1073.78 4952.43 -2475.7 -5028.43 -2505.48 -4952.59 2475.69 2155.17 1073.78z"/>
   <path class="fil4" d="M18204.05 9171.67l2122.44 -1061.05 -861.98 -429.47c-1338.75,413.56 -2804.01,-605.95 -1657.68,-1179.03 1143.6,-571.66 3193.15,155.41 2365.19,825.34l861.97 429.51 2122.47 -1061 -5028.43 -2505.49 -4952.41 2475.71 5028.43 2505.48z"/>
  </g>
  <path class="fil5" d="M12402.57 23972.76l0 -11498.73c0,-88.4 -55.23,-168.61 -148.25,-215.12l-10534.36 -5273.14c-85.11,-42.69 -178.4,-46.16 -259.15,-9.88 -80.75,36.2 -126.19,102.36 -126.19,183.2l-0.09 11498.55c0,88.4 55.23,168.61 148.25,215.12l10534.45 5273.14c68.65,34.51 142.64,43.4 211.12,26.42 16.36,-4.01 32.46,-9.52 48.02,-16.54 80.75,-36.11 126.2,-102.19 126.2,-183.02zm-3731.71 -8730.32l16.63 919.9c0.62,36.37 -36.64,46.51 -82.88,22.67l-973.62 -499.34c-46.24,-23.66 -83.41,-13.52 -82.79,22.76l14.14 782.86c0.62,36.37 38.95,85.55 85.2,109.47l973.61 499.26c46.24,23.75 85.28,73.46 85.19,109.3l-0.62 634.34c0,20.01 -9.78,32.37 -29.52,35.13l-251.86 34.68 -170.21 23.65c-15.56,2.14 -32.99,-2.04 -53.36,-12.53l-738.12 -380.09c-46.24,-23.84 -85.11,-73.28 -85.2,-109.39l-1.77 -760.18c-0.09,-36.19 -38.96,-85.55 -85.29,-109.56l-995.58 -512.6c-46.24,-24.01 -82.88,-13.16 -82.79,22.77l1.78 760.27c0.09,36.01 -36.55,46.78 -82.8,22.94l-166.39 -85.64 -523 -268.3 -134.91 -69.55 -88.66 -45.62 -257.99 -132.95c-46.24,-23.65 -84.93,-73.1 -85.19,-109.2l-5.78 -906.65c-0.27,-36.02 -38.95,-85.46 -85.2,-109.3l-177.33 -91.42 -204.27 -105.11 -590.94 -304.24c-46.25,-23.83 -84.58,-73.01 -85.2,-109.29l-1.6 -89.47 -9.52 -541.05 -2.84 -158.39c-0.71,-36.37 36.55,-46.68 82.79,-22.76l972.55 500.86c46.24,23.65 83.42,13.42 82.79,-22.95l-10.22 -634.79c-0.27,-19.47 8.8,-31.3 26.94,-34.95l149.58 -29.25 247.23 -48.47c15.83,-3.11 34.42,0.89 55.94,11.92l768.54 394.58c46.24,23.66 83.41,13.43 82.88,-22.94l-11.92 -766.58c-0.62,-36.38 36.55,-46.6 82.8,-22.77l995.57 512.6c46.25,24.01 84.67,73.19 85.2,109.47l12.01 766.58c0.53,36.37 38.95,85.55 85.19,109.39l1165.61 600.54c46.25,23.84 84.58,73.02 85.2,109.39z"/>
  <g id="_2308895295600">
  </g>
  <path class="fil5" d="M12728.31 23972.76l0 -11498.73c0,-88.4 54.37,-168.61 145.96,-215.12l10372.02 -5273.14c83.8,-42.69 175.65,-46.16 255.15,-9.88 79.51,36.2 124.25,102.36 124.25,183.2l0.09 11498.55c0,88.4 -54.38,168.61 -145.97,215.12l-10372.1 5273.14c-67.6,34.51 -140.45,43.4 -207.87,26.42 -16.11,-4.01 -31.96,-9.52 -47.28,-16.54 -79.51,-36.11 -124.25,-102.19 -124.25,-183.02zm3674.2 -8730.32l-16.38 919.9c-0.61,36.37 36.08,46.51 81.61,22.67l958.61 -499.34c45.53,-23.66 82.13,-13.52 81.51,22.76l-13.92 782.86c-0.61,36.37 -38.35,85.55 -83.88,109.47l-958.61 499.26c-45.53,23.75 -83.97,73.46 -83.88,109.3l0.61 634.34c0,20.01 9.63,32.37 29.07,35.13l247.97 34.68 167.59 23.65c15.33,2.14 32.49,-2.04 52.54,-12.53l726.75 -380.09c45.53,-23.84 83.79,-73.28 83.88,-109.39l1.75 -760.18c0.09,-36.19 38.35,-85.55 83.97,-109.56l980.24 -512.6c45.53,-24.01 81.6,-13.16 81.51,22.77l-1.75 760.27c-0.08,36.01 35.99,46.78 81.52,22.94l163.83 -85.64 514.94 -268.3 132.83 -69.55 87.29 -45.62 254.02 -132.95c45.53,-23.65 83.62,-73.1 83.88,-109.2l5.69 -906.65c0.26,-36.02 38.35,-85.46 83.88,-109.3l174.6 -91.42 201.12 -105.11 581.84 -304.24c45.53,-23.83 83.27,-73.01 83.88,-109.29l1.58 -89.47 9.37 -541.05 2.8 -158.39c0.7,-36.37 -35.99,-46.68 -81.52,-22.76l-957.56 500.86c-45.53,23.65 -82.13,13.42 -81.51,-22.95l10.06 -634.79c0.27,-19.47 -8.66,-31.3 -26.53,-34.95l-147.27 -29.25 -243.42 -48.47c-15.59,-3.11 -33.89,0.89 -55.07,11.92l-756.7 394.58c-45.53,23.66 -82.13,13.43 -81.6,-22.94l11.73 -766.58c0.61,-36.38 -35.99,-46.6 -81.52,-22.77l-980.24 512.6c-45.53,24.01 -83.35,73.19 -83.88,109.47l-11.82 766.58c-0.52,36.37 -38.35,85.55 -83.88,109.39l-1147.65 600.54c-45.53,23.84 -83.27,73.02 -83.88,109.39z"/>
  <g id="_2308895295552">
   <path class="fil6 str0" d="M5959.78 15935.16c233,16.16 335.48,-79.03 308.34,-285.6 -10.99,-83.67 -40.33,-166.93 -89.13,-251.31 -48.74,-83.86 -116.14,-169.91 -201.33,-258.18 -85.19,-88.27 -198.35,-186.39 -337.56,-293.86 -140.27,-108.51 -371.02,-268.45 -693.33,-481.36 -275.88,-181.45 -462.08,-310.42 -560.63,-388.41 -98.56,-78 -173.15,-148.67 -225.76,-213.03 -52.6,-64.36 -83.07,-128.19 -91.24,-190.41 -11.82,-89.96 31.15,-133.95 129.96,-130.98 97.83,2.48 244.37,53.66 438.57,152.54 377.56,192.24 622.28,409.56 735.13,652.45l653.22 274.03c-105.69,-216.31 -272.29,-420.2 -498.89,-611.7 -227.53,-191.48 -533.55,-385.36 -918.02,-581.11 -404.16,-205.79 -712.96,-315.68 -927.4,-330.68 -213.49,-14.52 -308.3,68.96 -284.52,249.91 15.39,117.14 66.75,235.03 152.97,352.13 86.27,117.61 203.31,238.2 352.06,362.25 147.84,124.07 383.07,290.2 704.85,498.93 133.78,87.15 258.64,169.26 376.45,246.81 116.82,77.05 219.4,150.76 307.83,221.64 88.42,70.89 158.93,138.51 212.59,203.89 53.67,65.39 84.26,130.25 92.71,194.58 29.34,223.3 -200.42,210.74 -689.38,-38.21 -448.54,-228.38 -735.02,-483.55 -860.43,-766.02l-644.76 -272.66c96.26,228.59 268.93,450.7 517.05,665.85 248.1,215.14 578.68,427.86 989.75,637.16 467.27,237.91 817.9,365.2 1050.9,381.35z"/>
   <path class="fil6 str0" d="M7084.41 14617.82l283.64 2158.82 703.85 358.37 -103.69 -789.16 356.52 -2.94 1322.45 1594.17 849.76 432.66 -1686.49 -2005.46 1269.76 -221.12 -833.97 -424.62 -1326.95 254.95 -131.03 -997.3 -703.85 -358.37z"/>
  </g>
 </g>
</svg>
