<?xml version="1.0" encoding="UTF-8"?>
<!DOCTYPE svg PUBLIC "-//W3C//DTD SVG 1.1//EN" "http://www.w3.org/Graphics/SVG/1.1/DTD/svg11.dtd">
<!-- Creator: CorelDRAW 2021 (64-Bit 评估版) -->
<svg xmlns="http://www.w3.org/2000/svg" xml:space="preserve" width="254mm" height="254mm" version="1.1" style="shape-rendering:geometricPrecision; text-rendering:geometricPrecision; image-rendering:optimizeQuality; fill-rule:evenodd; clip-rule:evenodd"
viewBox="0 0 25400 25400"
 xmlns:xlink="http://www.w3.org/1999/xlink"
 xmlns:xodm="http://www.corel.com/coreldraw/odm/2003">
 <defs>
  <style type="text/css">
   <![CDATA[
    .str0 {stroke:#FEFEFE;stroke-width:7.62;stroke-miterlimit:22.9256}
    .fil4 {fill:#F0CF86}
    .fil3 {fill:#00A4EF}
    .fil2 {fill:#80CC28}
    .fil1 {fill:#E73148}
    .fil0 {fill:#FFB900}
   ]]>
  </style>
 </defs>
 <g id="图层_x0020_1">
  <metadata id="CorelCorpID_0Corel-Layer"/>
  <g id="_2308721132160">
  </g>
  <g id="_2308721128224">
   <path class="fil0" d="M12457.22 6308.26l4952.41 -2475.7 -2155.01 -1073.78 -848.99 424.42c846.97,673.74 -1176.14,1391.27 -2340.08,811.27 -592.72,-295.29 -676.41,-1012.54 622.27,-1234.07 335.25,-57.14 643.36,-46.25 999.43,64.82l848.97 -424.37 -2155.02 -1073.78 -4952.41 2475.71 5028.43 2505.48z"/>
   <path class="fil1" d="M6797.33 9137.61l4952.41 -2475.71 -5028.43 -2505.48 -2122.46 1061 861.97 429.51c1338.58,-413.55 2804.01,605.95 1657.71,1179.04 -1143.62,571.65 -3193.17,-155.42 -2365.21,-825.35l-862.14 -429.51 -2122.46 1061 5028.61 2505.5z"/>
   <path class="fil2" d="M9670.72 10569.3l849.01 -424.41c-846.97,-673.74 1176.14,-1391.27 2340.06,-811.32 1161.18,578.55 -268.01,1591.59 -1621.84,1169.26l-848.99 424.4 2155.18 1073.78 4952.43 -2475.7 -5028.43 -2505.48 -4952.59 2475.69 2155.17 1073.78z"/>
   <path class="fil3" d="M18204.05 9171.67l2122.44 -1061.05 -861.98 -429.47c-1338.75,413.56 -2804.01,-605.95 -1657.68,-1179.03 1143.6,-571.66 3193.15,155.41 2365.19,825.34l861.97 429.51 2122.47 -1061 -5028.43 -2505.49 -4952.41 2475.71 5028.43 2505.48z"/>
  </g>
  <g id="_2308721130192">
  </g>
  <path class="fil4" d="M12728.31 23972.76l0 -11498.73c0,-88.4 54.37,-168.61 145.96,-215.12l10372.02 -5273.14c83.8,-42.69 175.65,-46.16 255.15,-9.88 79.51,36.2 124.25,102.36 124.25,183.2l0.09 11498.55c0,88.4 -54.38,168.61 -145.97,215.12l-10372.1 5273.14c-67.6,34.51 -140.45,43.4 -207.87,26.42 -16.11,-4.01 -31.96,-9.52 -47.28,-16.54 -79.51,-36.11 -124.25,-102.19 -124.25,-183.02zm3674.2 -8730.32l-16.38 919.9c-0.61,36.37 36.08,46.51 81.61,22.67l958.61 -499.34c45.53,-23.66 82.13,-13.52 81.51,22.76l-13.92 782.86c-0.61,36.37 -38.35,85.55 -83.88,109.47l-958.61 499.26c-45.53,23.75 -83.97,73.46 -83.88,109.3l0.61 634.34c0,20.01 9.63,32.37 29.07,35.13l247.97 34.68 167.59 23.65c15.33,2.14 32.49,-2.04 52.54,-12.53l726.75 -380.09c45.53,-23.84 83.79,-73.28 83.88,-109.39l1.75 -760.18c0.09,-36.19 38.35,-85.55 83.97,-109.56l980.24 -512.6c45.53,-24.01 81.6,-13.16 81.51,22.77l-1.75 760.27c-0.08,36.01 35.99,46.78 81.52,22.94l163.83 -85.64 514.94 -268.3 132.83 -69.55 87.29 -45.62 254.02 -132.95c45.53,-23.65 83.62,-73.1 83.88,-109.2l5.69 -906.65c0.26,-36.02 38.35,-85.46 83.88,-109.3l174.6 -91.42 201.12 -105.11 581.84 -304.24c45.53,-23.83 83.27,-73.01 83.88,-109.29l1.58 -89.47 9.37 -541.05 2.8 -158.39c0.7,-36.37 -35.99,-46.68 -81.52,-22.76l-957.56 500.86c-45.53,23.65 -82.13,13.42 -81.51,-22.95l10.06 -634.79c0.27,-19.47 -8.66,-31.3 -26.53,-34.95l-147.27 -29.25 -243.42 -48.47c-15.59,-3.11 -33.89,0.89 -55.07,11.92l-756.7 394.58c-45.53,23.66 -82.13,13.43 -81.6,-22.94l11.73 -766.58c0.61,-36.38 -35.99,-46.6 -81.52,-22.77l-980.24 512.6c-45.53,24.01 -83.35,73.19 -83.88,109.47l-11.82 766.58c-0.52,36.37 -38.35,85.55 -83.88,109.39l-1147.65 600.54c-45.53,23.84 -83.27,73.02 -83.88,109.39z"/>
  <path class="fil4 str0" d="M7368.05 16776.64l-283.64 -2158.82 703.85 358.37 131.03 997.3 1326.95 -254.95 833.97 424.62 -1269.76 221.12 1686.49 2005.46 -849.76 -432.66 -1322.45 -1594.17 -356.52 2.94 103.69 789.16 -703.85 -358.37zm5034.52 7196.12l0 -11498.73c0,-88.4 -55.23,-168.61 -148.25,-215.12l-10534.36 -5273.14c-85.11,-42.69 -178.4,-46.16 -259.15,-9.88 -80.75,36.2 -126.19,102.36 -126.19,183.2l-0.09 11498.55c0,88.4 55.23,168.61 148.25,215.12l10534.45 5273.14c68.65,34.51 142.64,43.4 211.12,26.42 16.36,-4.01 32.46,-9.52 48.02,-16.54 80.75,-36.11 126.2,-102.19 126.2,-183.02zm-6223.58 -8574.51c48.8,84.38 78.14,167.64 89.13,251.31 27.14,206.57 -75.34,301.76 -308.34,285.6 -233,-16.15 -583.63,-143.44 -1050.9,-381.35 -411.07,-209.3 -741.65,-422.02 -989.75,-637.16 -248.12,-215.15 -420.79,-437.26 -517.05,-665.85l644.76 272.66c125.41,282.47 411.89,537.64 860.43,766.02 488.96,248.95 718.72,261.51 689.38,38.21 -8.45,-64.33 -39.04,-129.19 -92.71,-194.58 -53.66,-65.38 -124.17,-133 -212.59,-203.89 -88.43,-70.88 -191.01,-144.59 -307.83,-221.64 -117.81,-77.55 -242.67,-159.66 -376.45,-246.81 -321.78,-208.73 -557.01,-374.86 -704.85,-498.93 -148.75,-124.05 -265.79,-244.64 -352.06,-362.25 -86.22,-117.1 -137.58,-234.99 -152.97,-352.13 -23.78,-180.95 71.03,-264.43 284.52,-249.91 214.44,15 523.24,124.89 927.4,330.68 384.47,195.75 690.49,389.63 918.02,581.11 226.6,191.5 393.2,395.39 498.89,611.7l-653.22 -274.03c-112.85,-242.89 -357.57,-460.21 -735.13,-652.45 -194.2,-98.88 -340.74,-150.06 -438.57,-152.54 -98.81,-2.97 -141.78,41.02 -129.96,130.98 8.17,62.22 38.64,126.05 91.24,190.41 52.61,64.36 127.2,135.03 225.76,213.03 98.55,77.99 284.75,206.96 560.63,388.41 322.31,212.91 553.06,372.85 693.33,481.36 139.21,107.47 252.37,205.59 337.56,293.86 85.19,88.27 152.59,174.32 201.33,258.18z"/>
 </g>
</svg>
