<?xml version="1.0" encoding="UTF-8"?>
<!DOCTYPE svg PUBLIC "-//W3C//DTD SVG 1.1//EN" "http://www.w3.org/Graphics/SVG/1.1/DTD/svg11.dtd">
<!-- Creator: CorelDRAW 2021 (64-Bit 评估版) -->
<svg xmlns="http://www.w3.org/2000/svg" xml:space="preserve" width="254mm" height="254mm" version="1.1" style="shape-rendering:geometricPrecision; text-rendering:geometricPrecision; image-rendering:optimizeQuality; fill-rule:evenodd; clip-rule:evenodd"
viewBox="0 0 25400 25400"
 xmlns:xlink="http://www.w3.org/1999/xlink"
 xmlns:xodm="http://www.corel.com/coreldraw/odm/2003">
 <defs>
  <style type="text/css">
   <![CDATA[
    .str0 {stroke:#FEFEFE;stroke-width:17.64;stroke-miterlimit:22.9256}
    .fil5 {fill:#FEFEFE}
    .fil4 {fill:#F0CF86}
    .fil3 {fill:#00A4EF}
    .fil2 {fill:#80CC28}
    .fil1 {fill:#E73148}
    .fil0 {fill:#FFB900}
   ]]>
  </style>
 </defs>
 <g id="图层_x0020_1">
  <metadata id="CorelCorpID_0Corel-Layer"/>
  <g id="_2308977252624">
  </g>
  <g id="_2308977253392">
   <path class="fil0" d="M12457.22 6308.26l4952.41 -2475.7 -2155.01 -1073.78 -848.99 424.42c846.97,673.74 -1176.14,1391.27 -2340.08,811.27 -592.72,-295.29 -676.41,-1012.54 622.27,-1234.07 335.25,-57.14 643.36,-46.25 999.43,64.82l848.97 -424.37 -2155.02 -1073.78 -4952.41 2475.71 5028.43 2505.48z"/>
   <path class="fil1" d="M6797.33 9137.61l4952.41 -2475.71 -5028.43 -2505.48 -2122.46 1061 861.97 429.51c1338.58,-413.55 2804.01,605.95 1657.71,1179.04 -1143.62,571.65 -3193.17,-155.42 -2365.21,-825.35l-862.14 -429.51 -2122.46 1061 5028.61 2505.5z"/>
   <path class="fil2" d="M9670.72 10569.3l849.01 -424.41c-846.97,-673.74 1176.14,-1391.27 2340.06,-811.32 1161.18,578.55 -268.01,1591.59 -1621.84,1169.26l-848.99 424.4 2155.18 1073.78 4952.43 -2475.7 -5028.43 -2505.48 -4952.59 2475.69 2155.17 1073.78z"/>
   <path class="fil3" d="M18204.05 9171.67l2122.44 -1061.05 -861.98 -429.47c-1338.75,413.56 -2804.01,-605.95 -1657.68,-1179.03 1143.6,-571.66 3193.15,155.41 2365.19,825.34l861.97 429.51 2122.47 -1061 -5028.43 -2505.49 -4952.41 2475.71 5028.43 2505.48z"/>
  </g>
  <path class="fil4 str0" d="M12402.57 23972.76l0 -11498.73c0,-88.4 -55.23,-168.61 -148.25,-215.12l-10534.36 -5273.14c-85.11,-42.69 -178.4,-46.16 -259.15,-9.88 -80.75,36.2 -126.19,102.36 -126.19,183.2l-0.09 11498.55c0,88.4 55.23,168.61 148.25,215.12l10534.45 5273.14c68.65,34.51 142.64,43.4 211.12,26.42 16.36,-4.01 32.46,-9.52 48.02,-16.54 80.75,-36.11 126.2,-102.19 126.2,-183.02zm-3731.71 -8730.32l16.63 919.9c0.62,36.37 -36.64,46.51 -82.88,22.67l-973.62 -499.34c-46.24,-23.66 -83.41,-13.52 -82.79,22.76l14.14 782.86c0.62,36.37 38.95,85.55 85.2,109.47l973.61 499.26c46.24,23.75 85.28,73.46 85.19,109.3l-0.62 634.34c0,20.01 -9.78,32.37 -29.52,35.13l-251.86 34.68 -170.21 23.65c-15.56,2.14 -32.99,-2.04 -53.36,-12.53l-738.12 -380.09c-46.24,-23.84 -85.11,-73.28 -85.2,-109.39l-1.77 -760.18c-0.09,-36.19 -38.96,-85.55 -85.29,-109.56l-995.58 -512.6c-46.24,-24.01 -82.88,-13.16 -82.79,22.77l1.78 760.27c0.09,36.01 -36.55,46.78 -82.8,22.94l-166.39 -85.64 -523 -268.3 -134.91 -69.55 -88.66 -45.62 -257.99 -132.95c-46.24,-23.65 -84.93,-73.1 -85.19,-109.2l-5.78 -906.65c-0.27,-36.02 -38.95,-85.46 -85.2,-109.3l-177.33 -91.42 -204.27 -105.11 -590.94 -304.24c-46.25,-23.83 -84.58,-73.01 -85.2,-109.29l-1.6 -89.47 -9.52 -541.05 -2.84 -158.39c-0.71,-36.37 36.55,-46.68 82.79,-22.76l972.55 500.86c46.24,23.65 83.42,13.42 82.79,-22.95l-10.22 -634.79c-0.27,-19.47 8.8,-31.3 26.94,-34.95l149.58 -29.25 247.23 -48.47c15.83,-3.11 34.42,0.89 55.94,11.92l768.54 394.58c46.24,23.66 83.41,13.43 82.88,-22.94l-11.92 -766.58c-0.62,-36.38 36.55,-46.6 82.8,-22.77l995.57 512.6c46.25,24.01 84.67,73.19 85.2,109.47l12.01 766.58c0.53,36.37 38.95,85.55 85.19,109.39l1165.61 600.54c46.25,23.84 84.58,73.02 85.2,109.39z"/>
  <g id="_2308977249264">
  </g>
  <path class="fil4 str0" d="M12728.31 23972.76l0 -11498.73c0,-88.4 54.37,-168.61 145.96,-215.12l10372.02 -5273.14c83.8,-42.69 175.65,-46.16 255.15,-9.88 79.51,36.2 124.25,102.36 124.25,183.2l0.09 11498.55c0,88.4 -54.38,168.61 -145.97,215.12l-10372.1 5273.14c-67.6,34.51 -140.45,43.4 -207.87,26.42 -16.11,-4.01 -31.96,-9.52 -47.28,-16.54 -79.51,-36.11 -124.25,-102.19 -124.25,-183.02zm3674.2 -8730.32l-16.38 919.9c-0.61,36.37 36.08,46.51 81.61,22.67l958.61 -499.34c45.53,-23.66 82.13,-13.52 81.51,22.76l-13.92 782.86c-0.61,36.37 -38.35,85.55 -83.88,109.47l-958.61 499.26c-45.53,23.75 -83.97,73.46 -83.88,109.3l0.61 634.34c0,20.01 9.63,32.37 29.07,35.13l247.97 34.68 167.59 23.65c15.33,2.14 32.49,-2.04 52.54,-12.53l726.75 -380.09c45.53,-23.84 83.79,-73.28 83.88,-109.39l1.75 -760.18c0.09,-36.19 38.35,-85.55 83.97,-109.56l980.24 -512.6c45.53,-24.01 81.6,-13.16 81.51,22.77l-1.75 760.27c-0.08,36.01 35.99,46.78 81.52,22.94l163.83 -85.64 514.94 -268.3 132.83 -69.55 87.29 -45.62 254.02 -132.95c45.53,-23.65 83.62,-73.1 83.88,-109.2l5.69 -906.65c0.26,-36.02 38.35,-85.46 83.88,-109.3l174.6 -91.42 201.12 -105.11 581.84 -304.24c45.53,-23.83 83.27,-73.01 83.88,-109.29l1.58 -89.47 9.37 -541.05 2.8 -158.39c0.7,-36.37 -35.99,-46.68 -81.52,-22.76l-957.56 500.86c-45.53,23.65 -82.13,13.42 -81.51,-22.95l10.06 -634.79c0.27,-19.47 -8.66,-31.3 -26.53,-34.95l-147.27 -29.25 -243.42 -48.47c-15.59,-3.11 -33.89,0.89 -55.07,11.92l-756.7 394.58c-45.53,23.66 -82.13,13.43 -81.6,-22.94l11.73 -766.58c0.61,-36.38 -35.99,-46.6 -81.52,-22.77l-980.24 512.6c-45.53,24.01 -83.35,73.19 -83.88,109.47l-11.82 766.58c-0.52,36.37 -38.35,85.55 -83.88,109.39l-1147.65 600.54c-45.53,23.84 -83.27,73.02 -83.88,109.39z"/>
  <path class="fil5" d="M7562.35 17016.6l-14.16 -901.39c-0.61,-41.77 36.56,-53.44 82.81,-26.21l973.61 574.94c46.25,27.44 83.51,15.78 82.88,-26.1l-16.63 -1059.17c-0.62,-41.88 -38.95,-98.5 -85.2,-125.95l-1165.62 -691.47c-46.23,-27.43 -84.64,-84.07 -85.18,-125.93l-12.01 -882.66c-0.52,-41.78 -38.95,-98.39 -85.19,-126.04l-995.59 -590.2c-46.23,-27.44 -83.42,-15.66 -82.79,26.2l11.91 882.65c0.54,41.89 -36.63,53.66 -82.88,26.42l-768.53 -454.33c-21.52,-12.69 -40.11,-17.31 -55.94,-13.73l-247.22 55.82 -149.59 33.68c-18.14,4.2 -27.2,17.82 -26.95,40.25l10.24 730.89c0.61,41.88 -36.56,53.65 -82.81,26.41l-972.54 -576.68c-46.25,-27.55 -83.5,-15.66 -82.79,26.22l2.84 182.36 9.52 622.97 1.6 103c0.63,41.77 38.96,98.42 85.19,125.84l590.96 350.29 204.27 121.04 177.32 105.27c46.24,27.43 84.92,84.35 85.2,125.84l5.78 1043.9c0.26,41.59 38.96,98.5 85.2,125.73l257.97 153.09 88.68 52.53 134.91 80.08 522.99 308.92 166.39 98.6c46.24,27.45 82.89,15.05 82.8,-26.41l-1.78 -875.37c-0.09,-41.37 36.55,-53.88 82.79,-26.21l995.57 590.21c46.34,27.64 85.21,84.45 85.3,126.13l1.78 875.28c0.07,41.58 38.93,98.49 85.18,125.93l738.13 437.64c20.37,12.1 37.8,16.91 53.36,14.45l170.21 -27.23 251.86 -39.95c19.74,-3.17 29.51,-17.42 29.51,-40.44l0.63 -730.39c0.09,-41.26 -38.95,-98.51 -85.2,-125.84l-973.61 -574.85c-46.24,-27.54 -84.57,-84.16 -85.18,-126.03z"/>
  <path class="fil5" d="M17634.04 14681.74l-1147.64 659.86c-45.54,26.19 -83.28,80.23 -83.89,120.19l-16.38 1010.76c-0.61,39.96 36.08,51.1 81.61,24.91l958.61 -548.66c45.53,-26 82.13,-14.86 81.51,25.01l-13.92 860.18c-0.61,39.96 -38.35,94 -83.88,120.28l-958.61 548.58c-45.53,26.08 -83.97,80.71 -83.88,120.09l0.61 696.99c0,21.99 9.63,35.57 29.07,38.6l247.97 38.11 167.59 25.99c15.33,2.35 32.49,-2.25 52.54,-13.77l726.75 -417.63c45.53,-26.2 83.79,-80.52 83.88,-120.2l1.75 -835.26c0.09,-39.77 38.35,-94 83.97,-120.38l980.24 -563.23c45.53,-26.38 81.6,-14.46 81.51,25.02l-1.75 835.36c-0.08,39.57 35.99,51.4 81.52,25.21l163.83 -94.1 514.94 -294.8 132.83 -76.42 87.29 -50.13 254.02 -146.08c45.53,-25.99 83.62,-80.32 83.88,-119.99l5.69 -996.2c0.26,-39.57 38.35,-93.9 83.88,-120.09l174.6 -100.45 201.12 -115.49 581.84 -334.29c45.53,-26.19 83.27,-80.22 83.88,-120.09l1.58 -98.3 9.37 -594.49 2.8 -174.04c0.7,-39.96 -35.99,-51.29 -81.52,-25.01l-957.56 550.33c-45.53,25.99 -82.13,14.75 -81.51,-25.21l10.06 -697.49c0.27,-21.39 -8.66,-34.39 -26.53,-38.4l-147.27 -32.14 -243.42 -53.26c-15.59,-3.42 -33.89,0.98 -55.07,13.1l-756.7 433.55c-45.53,26 -82.13,14.76 -81.6,-25.2l11.73 -842.3c0.61,-39.97 -35.99,-51.2 -81.52,-25.02l-980.24 563.23c-45.53,26.38 -83.35,80.42 -83.88,120.28l-11.82 842.3c-0.52,39.96 -38.35,94 -83.88,120.19z"/>
 </g>
</svg>
