<?xml version="1.0" encoding="UTF-8"?>
<!DOCTYPE svg PUBLIC "-//W3C//DTD SVG 1.1//EN" "http://www.w3.org/Graphics/SVG/1.1/DTD/svg11.dtd">
<!-- Creator: CorelDRAW 2021 (64-Bit 评估版) -->
<svg xmlns="http://www.w3.org/2000/svg" xml:space="preserve" width="254mm" height="254mm" version="1.1" style="shape-rendering:geometricPrecision; text-rendering:geometricPrecision; image-rendering:optimizeQuality; fill-rule:evenodd; clip-rule:evenodd"
viewBox="0 0 25400 25400"
 xmlns:xlink="http://www.w3.org/1999/xlink"
 xmlns:xodm="http://www.corel.com/coreldraw/odm/2003">
 <defs>
  <style type="text/css">
   <![CDATA[
    .str0 {stroke:white;stroke-width:52.92;stroke-miterlimit:22.9256}
    .str1 {stroke:white;stroke-width:35.28;stroke-miterlimit:22.9256}
    .str3 {stroke:#FEFEFE;stroke-width:7.62;stroke-miterlimit:22.9256}
    .str2 {stroke:white;stroke-width:7.62;stroke-miterlimit:22.9256}
    .fil2 {fill:none}
    .fil5 {fill:#00A4EF}
    .fil6 {fill:#80CC28}
    .fil3 {fill:#E73148}
    .fil1 {fill:#F0D087}
    .fil4 {fill:#FFB900}
    .fil0 {fill:white}
    .fil7 {fill:white}
   ]]>
  </style>
 </defs>
 <g id="图层_x0020_1">
  <metadata id="CorelCorpID_0Corel-Layer"/>
  <path class="fil0" d="M12840.79 6503.49l7711.71 3859.89c3.32,1.66 5.14,4.87 4.91,8.64 -0.24,3.77 -2.46,7.03 -5.98,8.78l-7708.38 3820.41c-3.01,1.49 -6.15,1.53 -8.98,0.12l-7711.71 -3859.89c-3.32,-1.66 -5.14,-4.87 -4.91,-8.63 0.23,-3.78 2.45,-7.04 5.98,-8.79l7708.38 -3820.41c3.01,-1.49 6.16,-1.53 8.98,-0.12z"/>
  <path class="fil1" d="M12720.27 14415.14l-3780.48 3752.4c-0.52,0.52 -1.04,1.04 -1.56,1.56l-57.39 56.92 -72.58 -36.03c-0.64,-0.29 -1.22,-0.58 -1.8,-0.87l-3879.52 -1925.57 0.23 3162.95c0,67.77 35.98,125.79 96.67,155.9l7734.08 3838.73c25.19,12.53 51.3,18.74 77.41,18.74l0 -9138.97 -113.03 112.21c-0.7,0.7 -1.34,1.34 -2.03,2.03z"/>
  <path class="fil1" d="M12835.33 14300.9l0 9138.97c26.11,0 52.22,-6.21 77.4,-18.74l7734.14 -3838.73c60.69,-30.11 96.67,-88.13 96.67,-155.9l-0.06 -3162.84 -3879.35 1925.52c-0.58,0.29 -1.21,0.58 -1.79,0.87l-72.59 36.03 -57.33 -56.86c-0.52,-0.58 -1.1,-1.1 -1.62,-1.63l-3780.42 -3752.45c-0.64,-0.63 -1.27,-1.27 -1.91,-1.97l-113.14 -112.27z"/>
  <path class="fil2 str0" d="M12835.33 14300.9l0 9158.64"/>
  <path class="fil2 str1" d="M972.69 14300.9l7908.15 3925.12 3954.49 -3925.12"/>
  <path class="fil2 str1" d="M24697.96 14300.9l-7908.21 3925.18 -3954.42 -3925.18"/>
  <path class="fil3" d="M5001.56 10338.87l7688.54 -3816.21c34.64,-17.18 56.8,-47.29 62.95,-85.41 6.15,-38.12 -5.34,-73.69 -32.78,-100.9l-3780.42 -3752.39c-35.86,-35.63 -88.08,-44.04 -133.33,-21.59l-7688.6 3816.16c-34.64,17.18 -56.8,47.29 -62.95,85.41 -6.16,38.12 5.33,73.69 32.78,100.9l3780.47 3752.45c35.86,35.62 88.08,44.04 133.34,21.58z"/>
  <path class="fil4" d="M12980.55 6522.66l7688.6 3816.16c45.26,22.45 97.48,14.04 133.34,-21.59l3780.41 -3752.39c27.45,-27.21 38.94,-62.72 32.79,-100.9 -6.15,-38.12 -28.32,-68.23 -62.96,-85.41l-7688.6 -3816.16c-45.25,-22.45 -97.47,-14.04 -133.33,21.59l-3780.42 3752.39c-27.44,27.21 -38.93,62.72 -32.78,100.9 6.15,38.12 28.32,68.23 62.95,85.41z"/>
  <path class="fil5" d="M20669.09 10412.68l-7688.54 3816.16c-34.63,17.17 -56.8,47.28 -62.95,85.4 -6.15,38.12 5.34,73.69 32.78,100.9l3780.42 3752.45c35.86,35.63 88.08,44.04 133.33,21.59l3879.35 -1925.52 3809.25 -1890.7c34.64,-17.17 56.81,-47.29 62.96,-85.41 6.15,-38.12 -5.4,-73.68 -32.79,-100.9l-3780.47 -3752.39c-35.86,-35.62 -88.08,-44.04 -133.34,-21.58z"/>
  <path class="fil6" d="M12690.1 14228.84l-7688.6 -3816.16c-45.26,-22.46 -97.48,-14.04 -133.34,21.58l-3780.41 3752.39c-27.45,27.22 -38.94,62.73 -32.78,100.9 6.15,38.12 28.31,68.24 62.95,85.41l3809.02 1890.59 3879.52 1925.57c45.26,22.46 97.48,14.04 133.33,-21.58l3780.48 -3752.4c27.44,-27.21 38.93,-62.72 32.78,-100.9 -6.15,-38.12 -28.31,-68.23 -62.95,-85.4z"/>
  <g id="_2308891062000">
   <path class="fil0 str2" d="M19928.68 14026.06l75.03 -37.81 217.03 -109.36c17.01,-8.57 18.16,-28.86 2.56,-45.19l-38.3 -40.1 -231.87 -242.58 -67.87 -71.05c-15.59,-16.32 -42.19,-22.64 -59.17,-14.08l-357.2 180c-16.98,8.56 -43.55,2.23 -59.17,-14.08l-272.72 -284.78c-8.33,-8.7 -18.95,-14.45 -31.23,-16.88l-101.69 -20.11 -167.98 -33.22c-10.76,-2.13 -20,-1.2 -27.96,2.78l-282.85 141.65c-17.02,8.52 -43.55,2.22 -59.18,-14.08l-329.52 -343.86c-15.61,-16.3 -42.19,-22.64 -59.17,-14.08l-365.67 184.26c-16.99,8.56 -18.16,28.89 -2.55,45.19l329.52 343.86c15.63,16.3 14.42,36.62 -2.55,45.18l-428.01 215.84c-17,8.57 -18.15,28.88 -2.56,45.19l394.03 412.49c15.59,16.32 42.14,22.6 59.18,14.08l358.5 -179.27c17.03,-8.52 43.57,-2.24 59.15,14.08l335.34 351.04c15.6,16.33 14.48,36.67 -2.55,45.19l-358.49 179.27c-17.04,8.52 -18.4,29 -2.56,45.18l278.82 284.96c8.86,9.05 20.1,15.05 32.98,17.19l164.75 27.27 111.3 18.42c10.15,1.68 18.71,0.66 26.2,-3.11l271.09 -136.61c17.01,-8.57 18.37,-28.97 2.57,-45.18l-332.75 -341.49c-15.81,-16.22 -14.44,-36.62 2.57,-45.19l365.65 -184.26c17.01,-8.57 43.38,-2.13 59.18,14.08l332.74 341.5c15.79,16.2 42.16,22.63 59.17,14.07l61.09 -30.79 192.59 -96.3 49.56 -24.97 32.57 -16.41 94.74 -47.75c17,-8.56 18.29,-28.94 2.55,-45.18l-394.58 -406.99c-15.74,-16.24 -14.44,-36.62 2.55,-45.18l65.14 -32.83z"/>
  </g>
  <g id="_2308891061280">
   <path class="fil4" d="M12881 10133.33l3331.36 -1667.35 -1449.62 -723.18 -571.1 285.85c569.74,453.75 -791.15,937 -1574.11,546.37 -398.7,-198.87 -455,-681.92 418.59,-831.13 225.51,-38.48 432.77,-31.14 672.29,43.66l571.08 -285.81 -1449.63 -723.17 -3331.36 1667.35 3382.5 1687.41z"/>
   <path class="fil3" d="M9073.73 12038.87l3331.36 -1667.36 -3382.5 -1687.41 -1427.72 714.57 579.83 289.27c900.42,-278.53 1886.18,408.1 1115.09,794.07 -769.28,384.99 -2147.96,-104.68 -1591.01,-555.87l-579.94 -289.26 -1427.73 714.57 3382.62 1687.42z"/>
   <path class="fil6" d="M11006.59 13003.09l571.11 -285.83c-569.74,-453.76 791.16,-937 1574.1,-546.41 781.1,389.64 -180.28,1071.91 -1090.97,787.48l-571.1 285.83 1449.74 723.17 3331.37 -1667.35 -3382.5 -1687.41 -3331.48 1667.35 1449.73 723.17z"/>
   <path class="fil5" d="M16746.75 12061.81l1427.71 -714.61 -579.83 -289.24c-900.54,278.53 -1886.19,-408.1 -1115.08,-794.06 769.27,-385.01 2147.95,104.66 1591,555.85l579.83 289.27 1427.73 -714.57 -3382.5 -1687.41 -3331.36 1667.36 3382.5 1687.41z"/>
  </g>
  <g id="_2308891061568">
   <path class="fil7 str3" d="M5259.29 14734.39c262.79,-22.04 494.84,-127.66 697.28,-317.02 82.01,-76.71 141.4,-150.09 178.58,-221.43 36.67,-70.85 53.3,-140.77 51,-209.95 -2.3,-69.17 -27.14,-143.11 -72.77,-221.67 -45.72,-79.36 -142.07,-192.5 -288.63,-340.69 -126.32,-126.11 -204.17,-217.32 -234.3,-274.72 -30.13,-57.41 -39.68,-111.77 -29.88,-163.72 9.79,-51.95 45.7,-106.94 106.68,-163.99 88.16,-82.46 190.11,-130.57 305.97,-143.56 115.23,-13.28 233.79,11.32 355.57,73.04 236.74,119.99 284.63,284.7 144.26,494.45l476.27 152.69c118.75,-185.96 149.85,-350.56 94.43,-493.95 -56.55,-143.24 -205.1,-276.19 -446.18,-398.37 -253.43,-128.45 -500.95,-182.21 -742.66,-162.04 -241.09,20.46 -450.55,113.87 -627.89,279.75 -114.8,107.39 -187.05,209.73 -216.33,305.77 -29.8,96.52 -25.87,190.91 12.4,283.48 37.14,92.74 131.86,210.97 282.52,355.34 62.21,60.36 119.4,117.42 173.27,171.34 53.25,53.6 93.12,106.34 119.12,158.69 26,52.35 34.1,104.51 24.41,157.25 -9.69,52.75 -46.62,108.68 -109.66,167.65 -218.84,204.71 -481.82,229.61 -788.42,74.21 -281.25,-142.55 -336.43,-336.09 -166.16,-580.94l-467.63 -152.75c-144.11,198.98 -188.62,379.69 -134.17,541.83 54.45,162.12 211.18,308.82 468.95,439.47 293,148.5 571.19,211.89 833.97,189.84z"/>
   <path class="fil7 str3" d="M8116.37 13319.63l-2115.71 1979.01 441.35 223.7 773.4 -723.44 433.57 -59.66 -219.19 1283.74 532.84 270.06 248.17 -1611.29 1784.07 -410.03 -522.93 -265.04 -1891.61 450.88 977.38 -914.24 -441.34 -223.69z"/>
  </g>
 </g>
</svg>
